STARTFONT 2.1
FONT -Adobe-Palatino-Medium-R-Normal--17-120-100-100-P-89-ISO8859-1
SIZE 12 100 100
FONTBOUNDINGBOX 21 17 -3 -4

STARTPROPERTIES 26
_DEC_DEVICE_FONTNAMES "PS=Palatino-Roman"
FONTNAME_REGISTRY ""
FAMILY_NAME "Palatino"
FOUNDRY "Adobe"
WEIGHT_NAME "Medium"
SLANT "R"
SETWIDTH_NAME "Normal"
ADD_STYLE_NAME ""
PIXEL_SIZE 17
POINT_SIZE 120
RESOLUTION_X 100
RESOLUTION_Y 100
SPACING "P"
AVERAGE_WIDTH 89
CHARSET_REGISTRY "ISO8859"
CHARSET_ENCODING "1"
CHARSET_COLLECTIONS "ASCII ISO8859-1 ADOBE-STANDARD"
FULL_NAME "Palatino Roman"
COPYRIGHT "Copyright (c) 1991 Adobe Systems, Inc."
CAP_HEIGHT 12
X_HEIGHT 8
WEIGHT 10
QUAD_WIDTH 10
DEFAULT_CHAR 0
FONT_DESCENT 4
FONT_ASCENT 13
ENDPROPERTIES

CHARS 190

STARTCHAR space
ENCODING 32
SWIDTH 250 0
DWIDTH 4 0
BBX 1 1 0 0
BITMAP
00
ENDCHAR

STARTCHAR exclam
ENCODING 33
SWIDTH 278 0
DWIDTH 5 0
BBX 2 12 1 0
BITMAP
40
C0
C0
C0
C0
40
40
40
40
00
C0
C0
ENDCHAR

STARTCHAR quotedbl
ENCODING 34
SWIDTH 371 0
DWIDTH 6 0
BBX 3 4 1 8
BITMAP
A0
A0
A0
A0
ENDCHAR

STARTCHAR numbersign
ENCODING 35
SWIDTH 500 0
DWIDTH 8 0
BBX 8 12 0 0
BITMAP
12
12
12
12
7F
24
24
FE
48
48
48
48
ENDCHAR

STARTCHAR dollar
ENCODING 36
SWIDTH 500 0
DWIDTH 8 0
BBX 7 15 0 -2
BITMAP
10
10
3E
52
92
90
D0
7C
16
12
92
94
F8
10
10
ENDCHAR

STARTCHAR percent
ENCODING 37
SWIDTH 840 0
DWIDTH 13 0
BBX 11 12 1 0
BITMAP
7080
CF00
8900
8A00
9200
6400
09C0
0B20
1220
1220
2240
2180
ENDCHAR

STARTCHAR ampersand
ENCODING 38
SWIDTH 778 0
DWIDTH 13 0
BBX 12 12 0 0
BITMAP
0E00
1200
1200
1400
1800
3800
49E0
8C80
8680
8300
C3B0
7CE0
ENDCHAR

STARTCHAR quoteright
ENCODING 39
SWIDTH 278 0
DWIDTH 4 0
BBX 3 4 0 8
BITMAP
60
40
40
80
ENDCHAR

STARTCHAR parenleft
ENCODING 40
SWIDTH 333 0
DWIDTH 6 0
BBX 4 14 1 -2
BITMAP
10
20
40
40
C0
80
80
80
80
C0
40
40
20
10
ENDCHAR

STARTCHAR parenright
ENCODING 41
SWIDTH 333 0
DWIDTH 6 0
BBX 4 14 0 -2
BITMAP
80
40
20
20
30
10
10
10
10
30
20
20
40
80
ENDCHAR

STARTCHAR asterisk
ENCODING 42
SWIDTH 389 0
DWIDTH 7 0
BBX 5 5 1 7
BITMAP
20
A8
70
50
88
ENDCHAR

STARTCHAR plus
ENCODING 43
SWIDTH 606 0
DWIDTH 10 0
BBX 7 9 1 0
BITMAP
10
10
10
10
FE
10
10
10
10
ENDCHAR

STARTCHAR comma
ENCODING 44
SWIDTH 250 0
DWIDTH 4 0
BBX 3 4 0 -2
BITMAP
60
40
40
80
ENDCHAR

STARTCHAR minus
ENCODING 45
SWIDTH 606 0
DWIDTH 10 0
BBX 8 1 1 4
BITMAP
FF
ENDCHAR

STARTCHAR period
ENCODING 46
SWIDTH 250 0
DWIDTH 4 0
BBX 2 2 1 0
BITMAP
C0
C0
ENDCHAR

STARTCHAR slash
ENCODING 47
SWIDTH 606 0
DWIDTH 10 0
BBX 7 15 1 -3
BITMAP
02
02
04
04
08
08
10
10
10
20
20
40
40
80
80
ENDCHAR

STARTCHAR zero
ENCODING 48
SWIDTH 500 0
DWIDTH 8 0
BBX 6 12 1 0
BITMAP
38
4C
84
84
84
84
84
84
84
84
C8
70
ENDCHAR

STARTCHAR one
ENCODING 49
SWIDTH 500 0
DWIDTH 8 0
BBX 5 12 1 0
BITMAP
30
E0
20
20
20
20
20
20
20
20
20
F8
ENDCHAR

STARTCHAR two
ENCODING 50
SWIDTH 500 0
DWIDTH 8 0
BBX 7 12 0 0
BITMAP
7C
46
82
02
02
04
04
08
10
20
40
FE
ENDCHAR

STARTCHAR three
ENCODING 51
SWIDTH 500 0
DWIDTH 8 0
BBX 7 12 0 0
BITMAP
78
4C
84
04
08
3C
06
02
02
82
44
78
ENDCHAR

STARTCHAR four
ENCODING 52
SWIDTH 500 0
DWIDTH 8 0
BBX 7 12 0 0
BITMAP
0C
18
18
28
28
48
48
88
FE
08
08
3E
ENDCHAR

STARTCHAR five
ENCODING 53
SWIDTH 500 0
DWIDTH 8 0
BBX 7 12 0 0
BITMAP
7E
40
40
40
7C
46
02
02
02
82
44
78
ENDCHAR

STARTCHAR six
ENCODING 54
SWIDTH 500 0
DWIDTH 8 0
BBX 6 12 1 0
BITMAP
0C
30
40
40
80
B8
CC
84
84
84
C8
70
ENDCHAR

STARTCHAR seven
ENCODING 55
SWIDTH 500 0
DWIDTH 8 0
BBX 7 12 0 0
BITMAP
FE
82
84
04
08
08
18
10
30
20
60
60
ENDCHAR

STARTCHAR eight
ENCODING 56
SWIDTH 500 0
DWIDTH 8 0
BBX 7 12 0 0
BITMAP
3C
46
42
42
64
38
5C
86
82
82
C4
78
ENDCHAR

STARTCHAR nine
ENCODING 57
SWIDTH 500 0
DWIDTH 8 0
BBX 6 12 1 0
BITMAP
38
4C
84
84
84
CC
74
04
08
08
30
C0
ENDCHAR

STARTCHAR colon
ENCODING 58
SWIDTH 250 0
DWIDTH 4 0
BBX 2 8 1 0
BITMAP
C0
C0
00
00
00
00
C0
C0
ENDCHAR

STARTCHAR semicolon
ENCODING 59
SWIDTH 250 0
DWIDTH 4 0
BBX 3 10 0 -2
BITMAP
60
60
00
00
00
00
60
40
40
80
ENDCHAR

STARTCHAR less
ENCODING 60
SWIDTH 606 0
DWIDTH 10 0
BBX 8 7 1 1
BITMAP
03
0C
30
C0
30
0C
03
ENDCHAR

STARTCHAR equal
ENCODING 61
SWIDTH 606 0
DWIDTH 10 0
BBX 8 4 1 2
BITMAP
FF
00
00
FF
ENDCHAR

STARTCHAR greater
ENCODING 62
SWIDTH 606 0
DWIDTH 10 0
BBX 8 7 1 1
BITMAP
C0
30
0C
03
0C
30
C0
ENDCHAR

STARTCHAR question
ENCODING 63
SWIDTH 444 0
DWIDTH 7 0
BBX 6 12 0 0
BITMAP
78
4C
84
04
0C
18
10
20
20
00
30
30
ENDCHAR

STARTCHAR at
ENCODING 64
SWIDTH 747 0
DWIDTH 12 0
BBX 11 12 0 0
BITMAP
0F00
3080
4040
4DA0
9B20
B120
A320
B240
9680
4920
20C0
1F00
ENDCHAR

STARTCHAR A
ENCODING 65
SWIDTH 778 0
DWIDTH 13 0
BBX 12 12 0 0
BITMAP
0200
0200
0700
0500
0980
0880
1080
1FC0
2040
2060
4020
F0F0
ENDCHAR

STARTCHAR B
ENCODING 66
SWIDTH 611 0
DWIDTH 10 0
BBX 9 12 0 0
BITMAP
FE00
2300
2100
2100
2200
3F00
2180
2080
2080
2080
2100
7E00
ENDCHAR

STARTCHAR C
ENCODING 67
SWIDTH 709 0
DWIDTH 11 0
BBX 10 12 1 0
BITMAP
1F80
6080
4080
8000
8000
8000
8000
8000
C000
4000
7040
1F80
ENDCHAR

STARTCHAR D
ENCODING 68
SWIDTH 774 0
DWIDTH 13 0
BBX 12 12 0 0
BITMAP
FF80
20E0
2020
2030
2010
2010
2010
2010
2010
2020
2060
7F80
ENDCHAR

STARTCHAR E
ENCODING 69
SWIDTH 611 0
DWIDTH 10 0
BBX 9 12 0 0
BITMAP
FF80
2080
2080
2000
2200
3E00
2200
2200
2000
2080
2080
7F80
ENDCHAR

STARTCHAR F
ENCODING 70
SWIDTH 556 0
DWIDTH 9 0
BBX 9 12 0 0
BITMAP
FF80
2080
2080
2000
2200
3E00
2200
2200
2000
2000
2000
7800
ENDCHAR

STARTCHAR G
ENCODING 71
SWIDTH 763 0
DWIDTH 12 0
BBX 11 12 1 0
BITMAP
1F80
6080
4080
8000
8000
8000
8000
81E0
C040
4040
70C0
1F00
ENDCHAR

STARTCHAR H
ENCODING 72
SWIDTH 832 0
DWIDTH 14 0
BBX 13 12 0 0
BITMAP
F8F8
2020
2020
2020
2020
3FE0
2020
2020
2020
2020
2020
F8F8
ENDCHAR

STARTCHAR I
ENCODING 73
SWIDTH 337 0
DWIDTH 6 0
BBX 5 12 0 0
BITMAP
F8
20
20
20
20
20
20
20
20
20
20
F8
ENDCHAR

STARTCHAR J
ENCODING 74
SWIDTH 333 0
DWIDTH 5 0
BBX 6 15 -1 -3
BITMAP
7C
10
10
10
10
10
10
10
10
10
10
10
10
20
C0
ENDCHAR

STARTCHAR K
ENCODING 75
SWIDTH 726 0
DWIDTH 12 0
BBX 11 12 0 0
BITMAP
F8E0
2080
2100
2200
2400
2800
3800
2400
2200
2100
2080
F8E0
ENDCHAR

STARTCHAR L
ENCODING 76
SWIDTH 611 0
DWIDTH 10 0
BBX 9 12 0 0
BITMAP
F800
2000
2000
2000
2000
2000
2000
2000
2000
2080
2080
7F80
ENDCHAR

STARTCHAR M
ENCODING 77
SWIDTH 946 0
DWIDTH 16 0
BBX 15 12 0 0
BITMAP
F00E
3008
3818
2818
2C28
2428
2448
2648
2288
2388
2108
713E
ENDCHAR

STARTCHAR N
ENCODING 78
SWIDTH 831 0
DWIDTH 13 0
BBX 12 12 0 0
BITMAP
E070
7020
5020
4820
4C20
4420
4220
4320
4120
40A0
40E0
E060
ENDCHAR

STARTCHAR O
ENCODING 79
SWIDTH 786 0
DWIDTH 13 0
BBX 11 12 1 0
BITMAP
1F00
61C0
4040
8060
8020
8020
8020
8020
C020
4040
70C0
1F00
ENDCHAR

STARTCHAR P
ENCODING 80
SWIDTH 604 0
DWIDTH 10 0
BBX 9 12 0 0
BITMAP
FF00
2180
2080
2080
2080
2100
2E00
2000
2000
2000
2000
F800
ENDCHAR

STARTCHAR Q
ENCODING 81
SWIDTH 786 0
DWIDTH 13 0
BBX 11 14 1 -2
BITMAP
1F00
61C0
4040
8060
8020
8020
8020
8020
C020
4040
70C0
1F00
0F80
10E0
ENDCHAR

STARTCHAR R
ENCODING 82
SWIDTH 668 0
DWIDTH 11 0
BBX 11 12 0 0
BITMAP
FF00
2180
2080
2080
2100
2E00
2400
2200
2300
2100
2180
F8E0
ENDCHAR

STARTCHAR S
ENCODING 83
SWIDTH 525 0
DWIDTH 8 0
BBX 7 12 0 0
BITMAP
3E
42
82
80
C0
70
1C
06
02
82
84
F8
ENDCHAR

STARTCHAR T
ENCODING 84
SWIDTH 613 0
DWIDTH 10 0
BBX 9 12 0 0
BITMAP
FF80
8880
8880
0800
0800
0800
0800
0800
0800
0800
0800
3E00
ENDCHAR

STARTCHAR U
ENCODING 85
SWIDTH 778 0
DWIDTH 13 0
BBX 12 12 0 0
BITMAP
F870
2020
2020
2020
2020
2020
2020
2020
2020
2020
1040
0F80
ENDCHAR

STARTCHAR V
ENCODING 86
SWIDTH 722 0
DWIDTH 12 0
BBX 11 12 0 0
BITMAP
F0E0
6040
2040
3080
1080
1100
1900
0900
0A00
0E00
0400
0400
ENDCHAR

STARTCHAR W
ENCODING 87
SWIDTH 1000 0
DWIDTH 16 0
BBX 15 12 0 0
BITMAP
E10E
4104
4104
6388
2288
2288
32C8
1450
1450
1C70
0820
0820
ENDCHAR

STARTCHAR X
ENCODING 88
SWIDTH 667 0
DWIDTH 11 0
BBX 10 12 1 0
BITMAP
E180
2100
3200
1200
1C00
0800
1C00
1600
2200
2300
4100
C1C0
ENDCHAR

STARTCHAR Y
ENCODING 89
SWIDTH 667 0
DWIDTH 11 0
BBX 10 12 0 0
BITMAP
E0C0
2080
3100
1100
1A00
0A00
0C00
0400
0400
0400
0400
1F00
ENDCHAR

STARTCHAR Z
ENCODING 90
SWIDTH 667 0
DWIDTH 11 0
BBX 10 12 0 0
BITMAP
7FC0
4080
4100
0300
0600
0400
0800
1800
3000
2000
4040
FFC0
ENDCHAR

STARTCHAR bracketleft
ENCODING 91
SWIDTH 333 0
DWIDTH 5 0
BBX 3 14 1 -2
BITMAP
E0
80
80
80
80
80
80
80
80
80
80
80
80
E0
ENDCHAR

STARTCHAR backslash
ENCODING 92
SWIDTH 606 0
DWIDTH 10 0
BBX 6 12 2 0
BITMAP
80
80
40
40
20
20
10
10
08
08
04
04
ENDCHAR

STARTCHAR bracketright
ENCODING 93
SWIDTH 333 0
DWIDTH 6 0
BBX 3 14 1 -2
BITMAP
E0
20
20
20
20
20
20
20
20
20
20
20
20
E0
ENDCHAR

STARTCHAR asciicircum
ENCODING 94
SWIDTH 606 0
DWIDTH 10 0
BBX 7 7 1 5
BITMAP
10
10
28
44
44
82
82
ENDCHAR

STARTCHAR underscore
ENCODING 95
SWIDTH 500 0
DWIDTH 8 0
BBX 8 1 0 -3
BITMAP
FF
ENDCHAR

STARTCHAR quoteleft
ENCODING 96
SWIDTH 278 0
DWIDTH 4 0
BBX 3 4 0 8
BITMAP
20
40
40
C0
ENDCHAR

STARTCHAR a
ENCODING 97
SWIDTH 500 0
DWIDTH 8 0
BBX 7 8 0 0
BITMAP
38
44
04
3C
C4
84
8C
76
ENDCHAR

STARTCHAR b
ENCODING 98
SWIDTH 553 0
DWIDTH 9 0
BBX 8 12 0 0
BITMAP
40
C0
40
40
5E
63
41
41
41
41
62
5C
ENDCHAR

STARTCHAR c
ENCODING 99
SWIDTH 444 0
DWIDTH 7 0
BBX 6 8 0 0
BITMAP
3C
44
84
80
80
80
C4
78
ENDCHAR

STARTCHAR d
ENCODING 100
SWIDTH 611 0
DWIDTH 10 0
BBX 8 12 1 0
BITMAP
02
06
02
02
3A
46
82
82
82
82
C6
7B
ENDCHAR

STARTCHAR e
ENCODING 101
SWIDTH 479 0
DWIDTH 8 0
BBX 7 8 0 0
BITMAP
38
44
82
FE
80
80
C2
7C
ENDCHAR

STARTCHAR f
ENCODING 102
SWIDTH 333 0
DWIDTH 5 0
BBX 5 12 0 0
BITMAP
18
28
40
40
40
F0
40
40
40
40
40
E0
ENDCHAR

STARTCHAR g
ENCODING 103
SWIDTH 556 0
DWIDTH 9 0
BBX 9 12 0 -4
BITMAP
1C00
2780
4200
4200
6400
3800
2000
3E00
4300
8100
C200
7C00
ENDCHAR

STARTCHAR h
ENCODING 104
SWIDTH 582 0
DWIDTH 9 0
BBX 8 12 0 0
BITMAP
40
C0
40
40
5C
66
42
42
42
42
42
E3
ENDCHAR

STARTCHAR i
ENCODING 105
SWIDTH 291 0
DWIDTH 5 0
BBX 3 12 1 0
BITMAP
40
40
00
00
40
C0
40
40
40
40
40
E0
ENDCHAR

STARTCHAR j
ENCODING 106
SWIDTH 234 0
DWIDTH 4 0
BBX 3 16 0 -4
BITMAP
20
20
00
00
20
60
20
20
20
20
20
20
20
20
40
80
ENDCHAR

STARTCHAR k
ENCODING 107
SWIDTH 556 0
DWIDTH 9 0
BBX 8 12 1 0
BITMAP
40
C0
40
40
46
48
50
70
58
4C
46
E3
ENDCHAR

STARTCHAR l
ENCODING 108
SWIDTH 291 0
DWIDTH 5 0
BBX 3 12 1 0
BITMAP
40
C0
40
40
40
40
40
40
40
40
40
E0
ENDCHAR

STARTCHAR m
ENCODING 109
SWIDTH 883 0
DWIDTH 15 0
BBX 13 8 1 0
BITMAP
5CE0
E730
4210
4210
4210
4210
4210
E718
ENDCHAR

STARTCHAR n
ENCODING 110
SWIDTH 582 0
DWIDTH 10 0
BBX 8 8 1 0
BITMAP
5C
E6
42
42
42
42
42
E3
ENDCHAR

STARTCHAR o
ENCODING 111
SWIDTH 546 0
DWIDTH 9 0
BBX 7 8 1 0
BITMAP
3C
46
82
82
82
82
C4
78
ENDCHAR

STARTCHAR p
ENCODING 112
SWIDTH 601 0
DWIDTH 10 0
BBX 8 12 1 -4
BITMAP
5E
E3
41
41
41
41
62
5C
40
40
40
E0
ENDCHAR

STARTCHAR q
ENCODING 113
SWIDTH 560 0
DWIDTH 9 0
BBX 8 12 1 -4
BITMAP
3A
46
82
82
82
82
C6
7A
02
02
02
07
ENDCHAR

STARTCHAR r
ENCODING 114
SWIDTH 395 0
DWIDTH 6 0
BBX 5 8 0 0
BITMAP
58
E8
40
40
40
40
40
E0
ENDCHAR

STARTCHAR s
ENCODING 115
SWIDTH 424 0
DWIDTH 7 0
BBX 6 8 0 0
BITMAP
3C
44
C0
70
1C
84
84
78
ENDCHAR

STARTCHAR t
ENCODING 116
SWIDTH 326 0
DWIDTH 5 0
BBX 5 10 0 0
BITMAP
40
40
40
F0
40
40
40
40
48
30
ENDCHAR

STARTCHAR u
ENCODING 117
SWIDTH 603 0
DWIDTH 10 0
BBX 8 8 1 0
BITMAP
42
C6
42
42
42
42
66
3B
ENDCHAR

STARTCHAR v
ENCODING 118
SWIDTH 565 0
DWIDTH 9 0
BBX 8 8 0 0
BITMAP
E7
42
64
24
28
38
10
10
ENDCHAR

STARTCHAR w
ENCODING 119
SWIDTH 834 0
DWIDTH 13 0
BBX 13 8 0 0
BITMAP
E238
4210
6720
2520
2940
39C0
1080
1080
ENDCHAR

STARTCHAR x
ENCODING 120
SWIDTH 516 0
DWIDTH 8 0
BBX 8 8 0 0
BITMAP
E1
22
34
18
18
2C
44
87
ENDCHAR

STARTCHAR y
ENCODING 121
SWIDTH 556 0
DWIDTH 9 0
BBX 8 12 0 -4
BITMAP
E7
42
62
24
24
38
18
10
10
20
A0
C0
ENDCHAR

STARTCHAR z
ENCODING 122
SWIDTH 500 0
DWIDTH 8 0
BBX 7 8 0 0
BITMAP
7E
44
48
10
10
22
42
FE
ENDCHAR

STARTCHAR braceleft
ENCODING 123
SWIDTH 333 0
DWIDTH 5 0
BBX 3 14 1 -2
BITMAP
20
40
40
40
40
40
80
40
40
40
40
40
40
20
ENDCHAR

STARTCHAR bar
ENCODING 124
SWIDTH 606 0
DWIDTH 10 0
BBX 1 12 4 0
BITMAP
80
80
80
80
80
80
80
80
80
80
80
80
ENDCHAR

STARTCHAR braceright
ENCODING 125
SWIDTH 333 0
DWIDTH 6 0
BBX 3 14 1 -2
BITMAP
80
40
40
40
40
40
20
40
40
40
40
40
40
80
ENDCHAR

STARTCHAR asciitilde
ENCODING 126
SWIDTH 606 0
DWIDTH 10 0
BBX 9 2 0 3
BITMAP
7880
8F00
ENDCHAR

STARTCHAR exclamdown
ENCODING 161
SWIDTH 278 0
DWIDTH 5 0
BBX 2 12 1 -4
BITMAP
C0
C0
00
80
80
80
80
C0
C0
C0
C0
80
ENDCHAR

STARTCHAR cent
ENCODING 162
SWIDTH 500 0
DWIDTH 8 0
BBX 6 12 1 -2
BITMAP
08
08
3C
54
90
90
A0
A0
E4
78
40
40
ENDCHAR

STARTCHAR sterling
ENCODING 163
SWIDTH 500 0
DWIDTH 9 0
BBX 8 12 0 0
BITMAP
0F
11
11
30
20
20
FC
20
20
41
61
9F
ENDCHAR

STARTCHAR currency
ENCODING 164
SWIDTH 500 0
DWIDTH 8 0
BBX 7 7 0 2
BITMAP
BA
44
82
82
82
44
BA
ENDCHAR

STARTCHAR yen
ENCODING 165
SWIDTH 500 0
DWIDTH 8 0
BBX 9 12 -1 0
BITMAP
C180
6100
2200
3200
1400
1400
7F00
0800
7F00
0800
0800
1C00
ENDCHAR

STARTCHAR brokenbar
ENCODING 166
SWIDTH 606 0
DWIDTH 10 0
BBX 1 12 4 0
BITMAP
80
80
80
80
80
00
00
80
80
80
80
80
ENDCHAR

STARTCHAR section
ENCODING 167
SWIDTH 500 0
DWIDTH 8 0
BBX 6 15 1 -3
BITMAP
38
48
80
80
C0
70
9C
84
E4
38
0C
04
84
88
F0
ENDCHAR

STARTCHAR dieresis
ENCODING 168
SWIDTH 333 0
DWIDTH 5 0
BBX 5 2 1 9
BITMAP
D8
D8
ENDCHAR

STARTCHAR copyright
ENCODING 169
SWIDTH 747 0
DWIDTH 13 0
BBX 12 12 0 0
BITMAP
0F00
30C0
4020
4720
8890
9090
9010
8890
4720
4020
30C0
0F00
ENDCHAR

STARTCHAR ordfeminine
ENCODING 170
SWIDTH 333 0
DWIDTH 5 0
BBX 4 7 0 5
BITMAP
60
90
70
90
70
00
F0
ENDCHAR

STARTCHAR guillemotleft
ENCODING 171
SWIDTH 500 0
DWIDTH 8 0
BBX 6 6 1 1
BITMAP
24
48
90
90
48
24
ENDCHAR

STARTCHAR logicalnot
ENCODING 172
SWIDTH 606 0
DWIDTH 10 0
BBX 8 5 0 1
BITMAP
FF
01
01
01
01
ENDCHAR

STARTCHAR hyphen
ENCODING 173
SWIDTH 333 0
DWIDTH 5 0
BBX 4 1 0 4
BITMAP
F0
ENDCHAR

STARTCHAR registered
ENCODING 174
SWIDTH 747 0
DWIDTH 12 0
BBX 12 12 0 0
BITMAP
0F00
30C0
4020
5F20
8890
8890
8F10
8910
5DA0
4020
30C0
0F00
ENDCHAR

STARTCHAR macron
ENCODING 175
SWIDTH 333 0
DWIDTH 5 0
BBX 5 1 1 9
BITMAP
F8
ENDCHAR

STARTCHAR degree
ENCODING 176
SWIDTH 400 0
DWIDTH 7 0
BBX 5 5 1 7
BITMAP
70
88
88
88
70
ENDCHAR

STARTCHAR plusminus
ENCODING 177
SWIDTH 606 0
DWIDTH 10 0
BBX 7 9 1 0
BITMAP
10
10
10
FE
10
10
10
00
FE
ENDCHAR

STARTCHAR twosuperior
ENCODING 178
SWIDTH 300 0
DWIDTH 5 0
BBX 5 7 0 5
BITMAP
70
48
08
10
20
40
F8
ENDCHAR

STARTCHAR threesuperior
ENCODING 179
SWIDTH 300 0
DWIDTH 5 0
BBX 5 7 0 5
BITMAP
30
48
08
30
08
88
70
ENDCHAR

STARTCHAR acute
ENCODING 180
SWIDTH 333 0
DWIDTH 5 0
BBX 3 3 2 9
BITMAP
20
40
80
ENDCHAR

STARTCHAR mu
ENCODING 181
SWIDTH 603 0
DWIDTH 10 0
BBX 8 12 1 -4
BITMAP
42
C6
42
42
42
42
66
7B
40
40
40
40
ENDCHAR

STARTCHAR paragraph
ENCODING 182
SWIDTH 628 0
DWIDTH 10 0
BBX 9 15 0 -3
BITMAP
7F80
CA00
8A00
CA00
6A00
1A00
0A00
0A00
0A00
0A00
0A00
0A00
0A00
0A00
3F80
ENDCHAR

STARTCHAR periodcentered
ENCODING 183
SWIDTH 250 0
DWIDTH 4 0
BBX 2 2 1 3
BITMAP
C0
C0
ENDCHAR

STARTCHAR cedilla
ENCODING 184
SWIDTH 333 0
DWIDTH 5 0
BBX 3 4 1 -4
BITMAP
40
E0
20
C0
ENDCHAR

STARTCHAR onesuperior
ENCODING 185
SWIDTH 300 0
DWIDTH 5 0
BBX 3 7 1 5
BITMAP
40
C0
40
40
40
40
E0
ENDCHAR

STARTCHAR ordmasculine
ENCODING 186
SWIDTH 333 0
DWIDTH 5 0
BBX 4 7 0 5
BITMAP
60
90
90
90
60
00
F0
ENDCHAR

STARTCHAR guillemotright
ENCODING 187
SWIDTH 500 0
DWIDTH 8 0
BBX 6 6 1 1
BITMAP
90
48
24
24
48
90
ENDCHAR

STARTCHAR onequarter
ENCODING 188
SWIDTH 750 0
DWIDTH 13 0
BBX 10 12 1 0
BITMAP
4100
C100
4200
4400
4400
4880
E980
1280
1480
27C0
4080
41C0
ENDCHAR

STARTCHAR onehalf
ENCODING 189
SWIDTH 750 0
DWIDTH 13 0
BBX 10 12 1 0
BITMAP
4100
C100
4200
4400
4400
4B80
EA40
1040
1080
2100
4200
47C0
ENDCHAR

STARTCHAR threequarters
ENCODING 190
SWIDTH 750 0
DWIDTH 13 0
BBX 12 12 0 0
BITMAP
3040
4840
0880
3100
0900
8A20
7260
04A0
0520
09F0
1020
1070
ENDCHAR

STARTCHAR questiondown
ENCODING 191
SWIDTH 444 0
DWIDTH 7 0
BBX 6 12 0 -4
BITMAP
30
30
00
10
10
20
60
C0
80
84
C8
78
ENDCHAR

STARTCHAR Agrave
ENCODING 192
SWIDTH 778 0
DWIDTH 13 0
BBX 12 13 0 0
BITMAP
0800
0400
0200
0000
0200
0700
0500
0980
1080
1FC0
2060
4020
F0F0
ENDCHAR

STARTCHAR Aacute
ENCODING 193
SWIDTH 778 0
DWIDTH 13 0
BBX 12 13 0 0
BITMAP
0080
0100
0200
0000
0200
0700
0500
0980
1080
1FC0
2060
4020
F0F0
ENDCHAR

STARTCHAR Acircumflex
ENCODING 194
SWIDTH 778 0
DWIDTH 13 0
BBX 12 13 0 0
BITMAP
0200
0500
0880
0000
0200
0700
0500
0980
1080
1FC0
2060
4020
F0F0
ENDCHAR

STARTCHAR Atilde
ENCODING 195
SWIDTH 778 0
DWIDTH 13 0
BBX 12 12 0 0
BITMAP
0680
0B00
0000
0200
0700
0500
0980
1080
1FC0
2060
4020
F0F0
ENDCHAR

STARTCHAR Adieresis
ENCODING 196
SWIDTH 778 0
DWIDTH 13 0
BBX 12 12 0 0
BITMAP
0D80
0D80
0000
0200
0700
0500
0980
1080
1FC0
2060
4020
F0F0
ENDCHAR

STARTCHAR Aring
ENCODING 197
SWIDTH 778 0
DWIDTH 13 0
BBX 12 13 0 0
BITMAP
0600
0900
0600
0000
0200
0700
0500
0980
1080
1FC0
2060
4020
F0F0
ENDCHAR

STARTCHAR AE
ENCODING 198
SWIDTH 944 0
DWIDTH 15 0
BBX 14 12 0 0
BITMAP
0FFC
0304
0504
0500
0910
09F0
1110
3F10
2100
4104
4104
E3FC
ENDCHAR

STARTCHAR Ccedilla
ENCODING 199
SWIDTH 709 0
DWIDTH 11 0
BBX 10 16 1 -4
BITMAP
1F80
6080
4080
8000
8000
8000
8000
8000
C000
4000
7040
1F80
0800
1C00
0400
1800
ENDCHAR

STARTCHAR Egrave
ENCODING 200
SWIDTH 611 0
DWIDTH 10 0
BBX 9 13 0 0
BITMAP
1000
0800
0400
0000
FF80
2080
2080
2200
3E00
2200
2080
2080
7F80
ENDCHAR

STARTCHAR Eacute
ENCODING 201
SWIDTH 611 0
DWIDTH 10 0
BBX 9 13 0 0
BITMAP
0200
0400
0800
0000
FF80
2080
2080
2200
3E00
2200
2080
2080
7F80
ENDCHAR

STARTCHAR Ecircumflex
ENCODING 202
SWIDTH 611 0
DWIDTH 10 0
BBX 9 13 0 0
BITMAP
0800
1400
2200
0000
FF80
2080
2080
2200
3E00
2200
2080
2080
7F80
ENDCHAR

STARTCHAR Edieresis
ENCODING 203
SWIDTH 611 0
DWIDTH 10 0
BBX 9 12 0 0
BITMAP
3600
3600
0000
FF80
2080
2080
2200
3E00
2200
2080
2080
7F80
ENDCHAR

STARTCHAR Igrave
ENCODING 204
SWIDTH 337 0
DWIDTH 6 0
BBX 5 13 0 0
BITMAP
40
20
10
00
F8
20
20
20
20
20
20
20
F8
ENDCHAR

STARTCHAR Iacute
ENCODING 205
SWIDTH 337 0
DWIDTH 6 0
BBX 5 13 0 0
BITMAP
10
20
40
00
F8
20
20
20
20
20
20
20
F8
ENDCHAR

STARTCHAR Icircumflex
ENCODING 206
SWIDTH 337 0
DWIDTH 6 0
BBX 5 13 0 0
BITMAP
20
50
88
00
F8
20
20
20
20
20
20
20
F8
ENDCHAR

STARTCHAR Idieresis
ENCODING 207
SWIDTH 337 0
DWIDTH 6 0
BBX 5 12 0 0
BITMAP
D8
D8
00
F8
20
20
20
20
20
20
20
F8
ENDCHAR

STARTCHAR Eth
ENCODING 208
SWIDTH 774 0
DWIDTH 13 0
BBX 12 12 0 0
BITMAP
FF80
20E0
2020
2030
2010
2010
FC10
2010
2010
2020
2060
7F80
ENDCHAR

STARTCHAR Ntilde
ENCODING 209
SWIDTH 831 0
DWIDTH 13 0
BBX 12 12 0 0
BITMAP
0680
0B00
0000
E070
7020
5020
4C20
4620
4320
40A0
40E0
E060
ENDCHAR

STARTCHAR Ograve
ENCODING 210
SWIDTH 786 0
DWIDTH 13 0
BBX 11 13 1 0
BITMAP
1000
0800
0400
0000
1F00
61C0
4040
8060
8020
C020
4040
70C0
1F00
ENDCHAR

STARTCHAR Oacute
ENCODING 211
SWIDTH 786 0
DWIDTH 13 0
BBX 11 13 1 0
BITMAP
0200
0400
0800
0000
1F00
61C0
4040
8060
8020
C020
4040
70C0
1F00
ENDCHAR

STARTCHAR Ocircumflex
ENCODING 212
SWIDTH 786 0
DWIDTH 13 0
BBX 11 13 1 0
BITMAP
0400
0A00
1100
0000
1F00
61C0
4040
8060
8020
C020
4040
70C0
1F00
ENDCHAR

STARTCHAR Otilde
ENCODING 213
SWIDTH 786 0
DWIDTH 13 0
BBX 11 12 1 0
BITMAP
0D00
1600
0000
1F00
61C0
4040
8060
8020
C020
4040
70C0
1F00
ENDCHAR

STARTCHAR Odieresis
ENCODING 214
SWIDTH 786 0
DWIDTH 13 0
BBX 11 12 1 0
BITMAP
1B00
1B00
0000
1F00
61C0
4040
8060
8020
C020
4040
70C0
1F00
ENDCHAR

STARTCHAR multiply
ENCODING 215
SWIDTH 606 0
DWIDTH 10 0
BBX 7 7 1 1
BITMAP
82
44
28
10
28
44
82
ENDCHAR

STARTCHAR Oslash
ENCODING 216
SWIDTH 833 0
DWIDTH 13 0
BBX 11 12 1 0
BITMAP
1F20
61C0
40C0
8160
8220
8420
8420
8820
D020
6040
70C0
9F00
ENDCHAR

STARTCHAR Ugrave
ENCODING 217
SWIDTH 778 0
DWIDTH 13 0
BBX 12 13 0 0
BITMAP
0800
0400
0200
0000
F870
2020
2020
2020
2020
2020
2020
1040
0F80
ENDCHAR

STARTCHAR Uacute
ENCODING 218
SWIDTH 778 0
DWIDTH 13 0
BBX 12 13 0 0
BITMAP
0080
0100
0200
0000
F870
2020
2020
2020
2020
2020
2020
1040
0F80
ENDCHAR

STARTCHAR Ucircumflex
ENCODING 219
SWIDTH 778 0
DWIDTH 13 0
BBX 12 13 0 0
BITMAP
0200
0500
0880
0000
F870
2020
2020
2020
2020
2020
2020
1040
0F80
ENDCHAR

STARTCHAR Udieresis
ENCODING 220
SWIDTH 778 0
DWIDTH 13 0
BBX 12 12 0 0
BITMAP
0D80
0D80
0000
F870
2020
2020
2020
2020
2020
2020
1040
0F80
ENDCHAR

STARTCHAR Yacute
ENCODING 221
SWIDTH 667 0
DWIDTH 11 0
BBX 10 13 0 0
BITMAP
0100
0200
0400
0000
E0C0
3080
1100
0A00
0E00
0400
0400
0400
1F00
ENDCHAR

STARTCHAR Thorn
ENCODING 222
SWIDTH 604 0
DWIDTH 10 0
BBX 9 12 0 0
BITMAP
F000
2000
2000
3F00
2180
2080
2080
2100
3E00
2000
2000
7000
ENDCHAR

STARTCHAR germandbls
ENCODING 223
SWIDTH 556 0
DWIDTH 9 0
BBX 7 12 1 0
BITMAP
1C
26
42
42
4E
D0
58
4C
46
42
52
FC
ENDCHAR

STARTCHAR agrave
ENCODING 224
SWIDTH 500 0
DWIDTH 8 0
BBX 7 12 0 0
BITMAP
20
10
08
00
38
44
04
3C
C4
84
8C
76
ENDCHAR

STARTCHAR aacute
ENCODING 225
SWIDTH 500 0
DWIDTH 8 0
BBX 7 12 0 0
BITMAP
08
10
20
00
38
44
04
3C
C4
84
8C
76
ENDCHAR

STARTCHAR acircumflex
ENCODING 226
SWIDTH 500 0
DWIDTH 8 0
BBX 7 12 0 0
BITMAP
10
28
44
00
38
44
04
3C
C4
84
8C
76
ENDCHAR

STARTCHAR atilde
ENCODING 227
SWIDTH 500 0
DWIDTH 8 0
BBX 7 11 0 0
BITMAP
34
58
00
38
44
04
3C
C4
84
8C
76
ENDCHAR

STARTCHAR adieresis
ENCODING 228
SWIDTH 500 0
DWIDTH 8 0
BBX 7 11 0 0
BITMAP
6C
6C
00
38
44
04
3C
C4
84
8C
76
ENDCHAR

STARTCHAR aring
ENCODING 229
SWIDTH 500 0
DWIDTH 8 0
BBX 7 12 0 0
BITMAP
18
24
18
00
38
44
04
3C
C4
84
8C
76
ENDCHAR

STARTCHAR ae
ENCODING 230
SWIDTH 758 0
DWIDTH 13 0
BBX 12 8 0 0
BITMAP
39C0
4620
0410
3FF0
C400
8400
8E10
73E0
ENDCHAR

STARTCHAR ccedilla
ENCODING 231
SWIDTH 444 0
DWIDTH 7 0
BBX 6 12 0 -4
BITMAP
3C
44
84
80
80
80
C4
78
20
70
10
60
ENDCHAR

STARTCHAR egrave
ENCODING 232
SWIDTH 479 0
DWIDTH 8 0
BBX 7 12 0 0
BITMAP
20
10
08
00
38
44
82
FE
80
80
C2
7C
ENDCHAR

STARTCHAR eacute
ENCODING 233
SWIDTH 479 0
DWIDTH 8 0
BBX 7 12 0 0
BITMAP
08
10
20
00
38
44
82
FE
80
80
C2
7C
ENDCHAR

STARTCHAR ecircumflex
ENCODING 234
SWIDTH 479 0
DWIDTH 8 0
BBX 7 12 0 0
BITMAP
10
28
44
00
38
44
82
FE
80
80
C2
7C
ENDCHAR

STARTCHAR edieresis
ENCODING 235
SWIDTH 479 0
DWIDTH 8 0
BBX 7 11 0 0
BITMAP
6C
6C
00
38
44
82
FE
80
80
C2
7C
ENDCHAR

STARTCHAR igrave
ENCODING 236
SWIDTH 287 0
DWIDTH 5 0
BBX 3 12 1 0
BITMAP
80
40
20
00
40
C0
40
40
40
40
40
E0
ENDCHAR

STARTCHAR iacute
ENCODING 237
SWIDTH 287 0
DWIDTH 5 0
BBX 3 12 1 0
BITMAP
20
40
80
00
40
C0
40
40
40
40
40
E0
ENDCHAR

STARTCHAR icircumflex
ENCODING 238
SWIDTH 287 0
DWIDTH 5 0
BBX 5 12 0 0
BITMAP
20
50
88
00
20
60
20
20
20
20
20
70
ENDCHAR

STARTCHAR idieresis
ENCODING 239
SWIDTH 287 0
DWIDTH 5 0
BBX 5 11 0 0
BITMAP
D8
D8
00
20
60
20
20
20
20
20
70
ENDCHAR

STARTCHAR eth
ENCODING 240
SWIDTH 546 0
DWIDTH 9 0
BBX 7 12 1 0
BITMAP
C8
30
48
04
34
46
82
82
82
82
C4
78
ENDCHAR

STARTCHAR ntilde
ENCODING 241
SWIDTH 582 0
DWIDTH 10 0
BBX 8 11 1 0
BITMAP
34
58
00
5C
E6
42
42
42
42
42
E3
ENDCHAR

STARTCHAR ograve
ENCODING 242
SWIDTH 546 0
DWIDTH 9 0
BBX 7 12 1 0
BITMAP
20
10
08
00
3C
46
82
82
82
82
C4
78
ENDCHAR

STARTCHAR oacute
ENCODING 243
SWIDTH 546 0
DWIDTH 9 0
BBX 7 12 1 0
BITMAP
08
10
20
00
3C
46
82
82
82
82
C4
78
ENDCHAR

STARTCHAR ocircumflex
ENCODING 244
SWIDTH 546 0
DWIDTH 9 0
BBX 7 12 1 0
BITMAP
10
28
44
00
3C
46
82
82
82
82
C4
78
ENDCHAR

STARTCHAR otilde
ENCODING 245
SWIDTH 546 0
DWIDTH 9 0
BBX 7 11 1 0
BITMAP
34
58
00
3C
46
82
82
82
82
C4
78
ENDCHAR

STARTCHAR odieresis
ENCODING 246
SWIDTH 546 0
DWIDTH 9 0
BBX 7 11 1 0
BITMAP
6C
6C
00
3C
46
82
82
82
82
C4
78
ENDCHAR

STARTCHAR divide
ENCODING 247
SWIDTH 606 0
DWIDTH 10 0
BBX 8 9 1 0
BITMAP
18
18
00
00
FF
00
00
18
18
ENDCHAR

STARTCHAR oslash
ENCODING 248
SWIDTH 556 0
DWIDTH 9 0
BBX 9 8 0 0
BITMAP
1E80
2300
4500
4900
4900
5100
6200
BC00
ENDCHAR

STARTCHAR ugrave
ENCODING 249
SWIDTH 603 0
DWIDTH 10 0
BBX 8 12 1 0
BITMAP
20
10
08
00
42
C6
42
42
42
42
66
3B
ENDCHAR

STARTCHAR uacute
ENCODING 250
SWIDTH 603 0
DWIDTH 10 0
BBX 8 12 1 0
BITMAP
04
08
10
00
42
C6
42
42
42
42
66
3B
ENDCHAR

STARTCHAR ucircumflex
ENCODING 251
SWIDTH 603 0
DWIDTH 10 0
BBX 8 12 1 0
BITMAP
10
28
44
00
42
C6
42
42
42
42
66
3B
ENDCHAR

STARTCHAR udieresis
ENCODING 252
SWIDTH 603 0
DWIDTH 10 0
BBX 8 11 1 0
BITMAP
36
36
00
42
C6
42
42
42
42
66
3B
ENDCHAR

STARTCHAR yacute
ENCODING 253
SWIDTH 556 0
DWIDTH 9 0
BBX 8 16 0 -4
BITMAP
04
08
10
00
E7
42
62
24
24
38
18
10
10
20
A0
C0
ENDCHAR

STARTCHAR thorn
ENCODING 254
SWIDTH 601 0
DWIDTH 10 0
BBX 8 16 1 -4
BITMAP
40
C0
40
40
5E
63
41
41
41
41
62
5C
40
40
40
E0
ENDCHAR

STARTCHAR ydieresis
ENCODING 255
SWIDTH 556 0
DWIDTH 9 0
BBX 8 15 0 -4
BITMAP
6C
6C
00
E7
42
62
24
24
38
18
10
10
20
A0
C0
ENDCHAR
ENDFONT
